<svg aria-hidden="true" style="position: absolute; width: 0; height: 0; overflow: hidden;" version="1.1" xmlns="http://www.w3.org/2000/svg" xmlns:xlink="http://www.w3.org/1999/xlink">
<defs>
<symbol id="cross" viewBox="0 0 32 32">
<path stroke-linejoin="round" stroke-linecap="round" stroke-miterlimit="4" stroke-width="2" d="M7 7l18 18"></path>
<path stroke-linejoin="round" stroke-linecap="round" stroke-miterlimit="4" stroke-width="2" d="M7 25l18-18"></path>
</symbol>
<symbol id="full-screen" viewBox="0 0 32 32">
<path fill="currentColor" style="fill: currentColor" opacity="0.01" d="M0 0h32v32h-32v-32z"></path>
<path fill="none" stroke="currentColor" style="stroke: currentColor" stroke-linejoin="round" stroke-linecap="round" stroke-miterlimit="4" stroke-width="2.6667" d="M22 4h6v6"></path>
<path fill="none" stroke="currentColor" style="stroke: currentColor" stroke-linejoin="round" stroke-linecap="round" stroke-miterlimit="4" stroke-width="2.6667" d="M28 22v6h-6"></path>
<path fill="none" stroke="currentColor" style="stroke: currentColor" stroke-linejoin="round" stroke-linecap="round" stroke-miterlimit="4" stroke-width="2.6667" d="M10 28h-6v-6"></path>
<path fill="none" stroke="currentColor" style="stroke: currentColor" stroke-linejoin="round" stroke-linecap="round" stroke-miterlimit="4" stroke-width="2.6667" d="M4 10v-6h6"></path>
</symbol>
<symbol id="left-arrow" viewBox="0 0 32 32">
<path d="M22.063 28.125c-0 0-0 0-0 0-0.259 0-0.493-0.105-0.663-0.274l-11.556-11.556c-0.17-0.17-0.274-0.404-0.274-0.663s0.105-0.493 0.274-0.663l11.556-11.556c0.17-0.17 0.404-0.275 0.663-0.275 0.518 0 0.938 0.42 0.938 0.938 0 0.259-0.105 0.493-0.274 0.663l-10.893 10.893 10.893 10.893c0.17 0.17 0.275 0.404 0.275 0.663 0 0.518-0.42 0.938-0.938 0.938-0 0-0 0-0 0h0z"></path>
</symbol>
<symbol id="right-arrow" viewBox="0 0 32 32">
<path stroke="currentColor" d="M12.631 28.125c-0.518-0-0.937-0.42-0.937-0.938 0-0.259 0.105-0.493 0.275-0.663l10.893-10.893-10.893-10.893c-0.163-0.168-0.263-0.398-0.263-0.651 0-0.518 0.42-0.938 0.938-0.938 0.253 0 0.483 0.1 0.652 0.263l11.556 11.556c0.17 0.17 0.274 0.404 0.274 0.663s-0.105 0.493-0.274 0.663l-11.556 11.556c-0.17 0.17-0.404 0.274-0.663 0.274-0 0-0 0-0 0h0z"></path>
</symbol>
<symbol id="theme" viewBox="0 0 32 32">
<path stroke-linejoin="round" stroke-linecap="round" stroke-miterlimit="4" stroke-width="1.3333" d="M16 21.333v-10.667"></path>
<path stroke-linejoin="round" stroke-linecap="round" stroke-miterlimit="4" stroke-width="1.3333" d="M5.333 16h2.667"></path>
<path stroke-linejoin="round" stroke-linecap="round" stroke-miterlimit="4" stroke-width="1.3333" d="M8.453 8.453l1.893 1.893"></path>
<path stroke-linejoin="round" stroke-linecap="round" stroke-miterlimit="4" stroke-width="1.3333" d="M16 5.333v2.667"></path>
<path stroke-linejoin="round" stroke-linecap="round" stroke-miterlimit="4" stroke-width="1.3333" d="M16 26.667v-2.667"></path>
<path stroke-linejoin="round" stroke-linecap="round" stroke-miterlimit="4" stroke-width="1.3333" d="M8.453 23.547l1.893-1.893"></path>
<path stroke-linejoin="round" stroke-linecap="round" stroke-miterlimit="4" stroke-width="1.3333" d="M21.333 16c0 2.946-2.388 5.333-5.333 5.333s-5.333-2.388-5.333-5.333c0-2.946 2.388-5.333 5.333-5.333s5.333 2.388 5.333 5.333z"></path>
</symbol>
<symbol id="minimize" viewBox="0 0 24 24" fill="none" xmlns="http://www.w3.org/2000/svg">
<path d="M8.5 3.75C8.5 3.33579 8.16421 3 7.75 3C7.33579 3 7 3.33579 7 3.75V6.25C7 6.66421 6.66421 7 6.25 7H3.75C3.33579 7 3 7.33579 3 7.75C3 8.16421 3.33579 8.5 3.75 8.5H6.25C7.49264 8.5 8.5 7.49264 8.5 6.25V3.75Z" fill="currentColor"/>
<path d="M8.5 20.25C8.5 20.6642 8.16421 21 7.75 21C7.33579 21 7 20.6642 7 20.25V17.75C7 17.3358 6.66421 17 6.25 17H3.75C3.33579 17 3 16.6642 3 16.25C3 15.8358 3.33579 15.5 3.75 15.5H6.25C7.49264 15.5 8.5 16.5074 8.5 17.75V20.25Z" fill="currentColor"/>
<path d="M16.25 3C15.8358 3 15.5 3.33579 15.5 3.75V6.25C15.5 7.49264 16.5074 8.5 17.75 8.5H20.25C20.6642 8.5 21 8.16421 21 7.75C21 7.33579 20.6642 7 20.25 7H17.75C17.3358 7 17 6.66421 17 6.25V3.75C17 3.33579 16.6642 3 16.25 3Z" fill="currentColor"/>
<path d="M15.5 20.25C15.5 20.6642 15.8358 21 16.25 21C16.6642 21 17 20.6642 17 20.25V17.75C17 17.3358 17.3358 17 17.75 17H20.25C20.6642 17 21 16.6642 21 16.25C21 15.8358 20.6642 15.5 20.25 15.5H17.75C16.5074 15.5 15.5 16.5074 15.5 17.75V20.25Z" fill="currentColor"/>
</symbol>
</defs>
</svg>
