<svg aria-hidden="true" style="position: absolute; width: 0; height: 0; overflow: hidden;" version="1.1" xmlns="http://www.w3.org/2000/svg" xmlns:xlink="http://www.w3.org/1999/xlink">
<defs>
<symbol id="theme" fill="currentColor" viewBox="0 0 16 16">
  <path d="M12 8a4 4 0 1 1-8 0 4 4 0 0 1 8 0zM8 0a.5.5 0 0 1 .5.5v2a.5.5 0 0 1-1 0v-2A.5.5 0 0 1 8 0zm0 13a.5.5 0 0 1 .5.5v2a.5.5 0 0 1-1 0v-2A.5.5 0 0 1 8 13zm8-5a.5.5 0 0 1-.5.5h-2a.5.5 0 0 1 0-1h2a.5.5 0 0 1 .5.5zM3 8a.5.5 0 0 1-.5.5h-2a.5.5 0 0 1 0-1h2A.5.5 0 0 1 3 8zm10.657-5.657a.5.5 0 0 1 0 .707l-1.414 1.415a.5.5 0 1 1-.707-.708l1.414-1.414a.5.5 0 0 1 .707 0zm-9.193 9.193a.5.5 0 0 1 0 .707L3.05 13.657a.5.5 0 0 1-.707-.707l1.414-1.414a.5.5 0 0 1 .707 0zm9.193 2.121a.5.5 0 0 1-.707 0l-1.414-1.414a.5.5 0 0 1 .707-.707l1.414 1.414a.5.5 0 0 1 0 .707zM4.464 4.465a.5.5 0 0 1-.707 0L2.343 3.05a.5.5 0 1 1 .707-.707l1.414 1.414a.5.5 0 0 1 0 .708z"/>
</symbol>
<symbol id="left-icon" fill="currentColor" viewBox="0 0 16 16">
  <path fill-rule="evenodd" d="M11.354 1.646a.5.5 0 0 1 0 .708L5.707 8l5.647 5.646a.5.5 0 0 1-.708.708l-6-6a.5.5 0 0 1 0-.708l6-6a.5.5 0 0 1 .708 0z"/>
</symbol>
<symbol id="right-icon" fill="currentColor" viewBox="0 0 16 16">
  <path fill-rule="evenodd" d="M4.646 1.646a.5.5 0 0 1 .708 0l6 6a.5.5 0 0 1 0 .708l-6 6a.5.5 0 0 1-.708-.708L10.293 8 4.646 2.354a.5.5 0 0 1 0-.708z"/>
</symbol>
<symbol id="fullscreen" fill="currentColor" viewBox="0 0 16 16">
  <path d="M1.5 1a.5.5 0 0 0-.5.5v4a.5.5 0 0 1-1 0v-4A1.5 1.5 0 0 1 1.5 0h4a.5.5 0 0 1 0 1h-4zM10 .5a.5.5 0 0 1 .5-.5h4A1.5 1.5 0 0 1 16 1.5v4a.5.5 0 0 1-1 0v-4a.5.5 0 0 0-.5-.5h-4a.5.5 0 0 1-.5-.5zM.5 10a.5.5 0 0 1 .5.5v4a.5.5 0 0 0 .5.5h4a.5.5 0 0 1 0 1h-4A1.5 1.5 0 0 1 0 14.5v-4a.5.5 0 0 1 .5-.5zm15 0a.5.5 0 0 1 .5.5v4a1.5 1.5 0 0 1-1.5 1.5h-4a.5.5 0 0 1 0-1h4a.5.5 0 0 0 .5-.5v-4a.5.5 0 0 1 .5-.5z"/>
</symbol>
<symbol id="fullscreen-exit" fill="currentColor" viewBox="0 0 16 16">
  <path d="M5.5 0a.5.5 0 0 1 .5.5v4A1.5 1.5 0 0 1 4.5 6h-4a.5.5 0 0 1 0-1h4a.5.5 0 0 0 .5-.5v-4a.5.5 0 0 1 .5-.5zm5 0a.5.5 0 0 1 .5.5v4a.5.5 0 0 0 .5.5h4a.5.5 0 0 1 0 1h-4A1.5 1.5 0 0 1 10 4.5v-4a.5.5 0 0 1 .5-.5zM0 10.5a.5.5 0 0 1 .5-.5h4A1.5 1.5 0 0 1 6 11.5v4a.5.5 0 0 1-1 0v-4a.5.5 0 0 0-.5-.5h-4a.5.5 0 0 1-.5-.5zm10 1a1.5 1.5 0 0 1 1.5-1.5h4a.5.5 0 0 1 0 1h-4a.5.5 0 0 0-.5.5v4a.5.5 0 0 1-1 0v-4z"/>
</symbol>
<symbol id="person" fill="currentColor" viewBox="0 0 16 16">
  <path d="M3 14s-1 0-1-1 1-4 6-4 6 3 6 4-1 1-1 1H3zm5-6a3 3 0 1 0 0-6 3 3 0 0 0 0 6z"/>
</symbol>
<symbol id="x" fill="currentColor" viewBox="0 0 16 16">
  <path d="M2.146 2.854a.5.5 0 1 1 .708-.708L8 7.293l5.146-5.147a.5.5 0 0 1 .708.708L8.707 8l5.147 5.146a.5.5 0 0 1-.708.708L8 8.707l-5.146 5.147a.5.5 0 0 1-.708-.708L7.293 8 2.146 2.854Z"/>
</symbol>
<symbol id="wrench" fill="currentColor" viewBox="0 0 16 16">
  <path d="M16 4.5a4.492 4.492 0 0 1-1.703 3.526L13 5l2.959-1.11c.027.2.041.403.041.61Z"/>
  <path d="M11.5 9c.653 0 1.273-.139 1.833-.39L12 5.5 11 3l3.826-1.53A4.5 4.5 0 0 0 7.29 6.092l-6.116 5.096a2.583 2.583 0 1 0 3.638 3.638L9.908 8.71A4.49 4.49 0 0 0 11.5 9Zm-1.292-4.361-.596.893.809-.27a.25.25 0 0 1 .287.377l-.596.893.809-.27.158.475-1.5.5a.25.25 0 0 1-.287-.376l.596-.893-.809.27a.25.25 0 0 1-.287-.377l.596-.893-.809.27-.158-.475 1.5-.5a.25.25 0 0 1 .287.376ZM3 14a1 1 0 1 1 0-2 1 1 0 0 1 0 2Z"/>
</symbol>
<symbol id="temp" fill="currentColor" viewBox="0 0 16 16">
  <path d="M6.5 0A1.5 1.5 0 0 0 5 1.5v1A1.5 1.5 0 0 0 6.5 4h3A1.5 1.5 0 0 0 11 2.5v-1A1.5 1.5 0 0 0 9.5 0h-3Zm3 1a.5.5 0 0 1 .5.5v1a.5.5 0 0 1-.5.5h-3a.5.5 0 0 1-.5-.5v-1a.5.5 0 0 1 .5-.5h3Z"/>
  <path d="M4 1.5H3a2 2 0 0 0-2 2V14a2 2 0 0 0 2 2h10a2 2 0 0 0 2-2V3.5a2 2 0 0 0-2-2h-1v1A2.5 2.5 0 0 1 9.5 5h-3A2.5 2.5 0 0 1 4 2.5v-1ZM10 8a1 1 0 1 1 2 0v5a1 1 0 1 1-2 0V8Zm-6 4a1 1 0 1 1 2 0v1a1 1 0 1 1-2 0v-1Zm4-3a1 1 0 0 1 1 1v3a1 1 0 1 1-2 0v-3a1 1 0 0 1 1-1Z"/>
</symbol>
<symbol id="box" fill="currentColor" viewBox="0 0 16 16">
  <path d="M7.752.066a.5.5 0 0 1 .496 0l3.75 2.143a.5.5 0 0 1 .252.434v3.995l3.498 2A.5.5 0 0 1 16 9.07v4.286a.5.5 0 0 1-.252.434l-3.75 2.143a.5.5 0 0 1-.496 0l-3.502-2-3.502 2.001a.5.5 0 0 1-.496 0l-3.75-2.143A.5.5 0 0 1 0 13.357V9.071a.5.5 0 0 1 .252-.434L3.75 6.638V2.643a.5.5 0 0 1 .252-.434L7.752.066ZM4.25 7.504 1.508 9.071l2.742 1.567 2.742-1.567L4.25 7.504ZM7.5 9.933l-2.75 1.571v3.134l2.75-1.571V9.933Zm1 3.134 2.75 1.571v-3.134L8.5 9.933v3.134Zm.508-3.996 2.742 1.567 2.742-1.567-2.742-1.567-2.742 1.567Zm2.242-2.433V3.504L8.5 5.076V8.21l2.75-1.572ZM7.5 8.21V5.076L4.75 3.504v3.134L7.5 8.21ZM5.258 2.643 8 4.21l2.742-1.567L8 1.076 5.258 2.643ZM15 9.933l-2.75 1.571v3.134L15 13.067V9.933ZM3.75 14.638v-3.134L1 9.933v3.134l2.75 1.571Z"/>
</symbol>
<symbol id="temp-logo" fill="currentColor" viewBox="0 0 16 16">
  <path d="M1 11a1 1 0 0 1 1-1h2a1 1 0 0 1 1 1v3a1 1 0 0 1-1 1H2a1 1 0 0 1-1-1v-3zm5-4a1 1 0 0 1 1-1h2a1 1 0 0 1 1 1v7a1 1 0 0 1-1 1H7a1 1 0 0 1-1-1V7zm5-5a1 1 0 0 1 1-1h2a1 1 0 0 1 1 1v12a1 1 0 0 1-1 1h-2a1 1 0 0 1-1-1V2z"/>
</symbol>
<symbol id="split-one" fill="currentColor" class="bi bi-app" viewBox="0 0 16 16">
  <path d="M14,1a1,1,0,0,1,1,1V14a1,1,0,0,1-1,1H2a1,1,0,0,1-1-1V2A1,1,0,0,1,2,1ZM2,0A2,2,0,0,0,0,2V14a2,2,0,0,0,2,2H14a2,2,0,0,0,2-2V2a2,2,0,0,0-2-2Z"/>
</symbol>
<symbol id="split-two" fill="currentColor" viewBox="0 0 16 16">>
  <path d="M0,2.29A2.16,2.16,0,0,1,2,0H14a2.16,2.16,0,0,1,2,2.29V13.71A2.16,2.16,0,0,1,14,16H2a2.16,2.16,0,0,1-2-2.29ZM8.5,1.14V14.86H14a1.08,1.08,0,0,0,1-1.15V2.29a1.08,1.08,0,0,0-1-1.15Zm-1,0H2A1.08,1.08,0,0,0,1,2.29V13.71a1.08,1.08,0,0,0,1,1.15H7.5Z"/>
</symbol>
<symbol id="grip-vertical" fill="currentColor" viewBox="0 0 16 16">
  <path d="M7 2a1 1 0 1 1-2 0 1 1 0 0 1 2 0zm3 0a1 1 0 1 1-2 0 1 1 0 0 1 2 0zM7 5a1 1 0 1 1-2 0 1 1 0 0 1 2 0zm3 0a1 1 0 1 1-2 0 1 1 0 0 1 2 0zM7 8a1 1 0 1 1-2 0 1 1 0 0 1 2 0zm3 0a1 1 0 1 1-2 0 1 1 0 0 1 2 0zm-3 3a1 1 0 1 1-2 0 1 1 0 0 1 2 0zm3 0a1 1 0 1 1-2 0 1 1 0 0 1 2 0zm-3 3a1 1 0 1 1-2 0 1 1 0 0 1 2 0zm3 0a1 1 0 1 1-2 0 1 1 0 0 1 2 0z"/>
</symbol>
<symbol id="folder" fill="currentColor" viewBox="0 0 16 16">
  <path d="M.54 3.87.5 3a2 2 0 0 1 2-2h3.672a2 2 0 0 1 1.414.586l.828.828A2 2 0 0 0 9.828 3h3.982a2 2 0 0 1 1.992 2.181l-.637 7A2 2 0 0 1 13.174 14H2.826a2 2 0 0 1-1.991-1.819l-.637-7a1.99 1.99 0 0 1 .342-1.31zM2.19 4a1 1 0 0 0-.996 1.09l.637 7a1 1 0 0 0 .995.91h10.348a1 1 0 0 0 .995-.91l.637-7A1 1 0 0 0 13.81 4H2.19zm4.69-1.707A1 1 0 0 0 6.172 2H2.5a1 1 0 0 0-1 .981l.006.139C1.72 3.042 1.95 3 2.19 3h5.396l-.707-.707z"/>
</symbol>
<symbol id="search" fill="currentColor" viewBox="0 0 16 16">
  <path d="M11.742 10.344a6.5 6.5 0 1 0-1.397 1.398h-.001c.03.04.062.078.098.115l3.85 3.85a1 1 0 0 0 1.415-1.414l-3.85-3.85a1.007 1.007 0 0 0-.115-.1zM12 6.5a5.5 5.5 0 1 1-11 0 5.5 5.5 0 0 1 11 0z"/>
</symbol>
</defs>
</svg>
